<mxfile host="app.diagrams.net" modified="2024-10-01T07:54:15.146Z" agent="Mozilla/5.0 (Windows NT 10.0; Win64; x64) AppleWebKit/537.36 (KHTML, like Gecko) Chrome/129.0.0.0 Safari/537.36" version="24.2.2" etag="uM1Ekyu1OFxBlfazHhKy" type="github">
  <diagram name="Page-1" id="zmTfprUdWG5-JhSZPTC3">
    <mxGraphModel>
      <root>
        <mxCell id="0" />
        <mxCell id="1" parent="0" />
      </root>
    </mxGraphModel>
  </diagram>
</mxfile>
